# Noesis .obj export.
#
mtllib unused.mtl
g
v  -0.017926 -0.068550 0.036119
v  -0.018765 -0.078424 0.017848
v  -0.010735 -0.077939 0.028522
v  -0.028463 -0.069186 0.022111
v  -0.022094 -0.078973 0.004916
v  -0.032833 -0.069906 0.005138
v  -0.020217 -0.079502 -0.008307
v  -0.030369 -0.070601 -0.012215
v  -0.013418 -0.079931 -0.019807
v  -0.021447 -0.071163 -0.027306
v  -0.002734 -0.080194 -0.027832
v  -0.007425 -0.071509 -0.037839
v  0.010210 -0.080252 -0.031162
v  0.009562 -0.071585 -0.042209
v  0.023443 -0.080095 -0.029290
v  0.026929 -0.071379 -0.039752
v  0.034951 -0.079748 -0.022500
v  0.042031 -0.070923 -0.030841
v  0.042980 -0.079263 -0.011826
v  0.052569 -0.070287 -0.016833
v  -0.041020 -0.054459 0.004956
v  -0.035863 -0.053609 0.024989
v  -0.038112 -0.055279 -0.015526
v  -0.027581 -0.055943 -0.033339
v  -0.011031 -0.056351 -0.045770
v  0.009020 -0.056440 -0.050929
v  0.029518 -0.056198 -0.048028
v  0.047343 -0.055660 -0.037510
v  0.059780 -0.054909 -0.020976
v  -0.038226 -0.036422 0.025373
v  -0.025200 -0.035635 0.042688
v  -0.023425 -0.052858 0.041523
v  -0.005600 -0.052320 0.052041
v  -0.002824 -0.068094 0.045030
v  0.000772 -0.077592 0.035312
v  0.014543 -0.067888 0.047488
v  0.014005 -0.077435 0.037185
v  0.031530 -0.067964 0.043117
v  0.026949 -0.077493 0.033855
v  0.045552 -0.068310 0.032585
v  0.037634 -0.077756 0.025829
v  0.054474 -0.068872 0.017493
v  0.044432 -0.078185 0.014330
v  0.056938 -0.069567 0.000140
v  0.046310 -0.078714 0.001107
v  0.052569 -0.070287 -0.016833
v  0.042980 -0.079263 -0.011826
v  0.059780 -0.054909 -0.020976
v  0.064938 -0.054059 -0.000943
v  0.062030 -0.053239 0.019539
v  0.051499 -0.052575 0.037352
v  0.034948 -0.052167 0.049783
v  0.014898 -0.052078 0.054942
v  0.061935 -0.037783 -0.022763
v  0.067337 -0.036893 -0.001784
v  0.064291 -0.036034 0.019666
v  0.053263 -0.035339 0.038320
v  0.035930 -0.034911 0.051339
v  0.014933 -0.034818 0.056741
v  -0.006533 -0.035072 0.053703
v  0.059625 -0.020762 -0.022397
v  0.064788 -0.019911 -0.002342
v  0.061877 -0.019090 0.018162
v  0.051335 -0.018425 0.035994
v  0.034766 -0.018017 0.048439
v  0.014694 -0.017928 0.053603
v  -0.005826 -0.018170 0.050699
v  -0.023670 -0.018709 0.040170
v  -0.036121 -0.019461 0.023618
v  -0.043627 -0.037312 0.004394
v  -0.040581 -0.038170 -0.017055
v  -0.029553 -0.038866 -0.035709
v  -0.012221 -0.039293 -0.048729
v  0.008777 -0.039387 -0.054130
v  0.030243 -0.039133 -0.051093
v  0.048910 -0.038569 -0.040078
v  0.061935 -0.037783 -0.022763
v  -0.041284 -0.020312 0.003564
v  -0.038373 -0.021132 -0.016940
v  -0.027831 -0.021797 -0.034772
v  -0.011262 -0.022206 -0.047217
v  0.008810 -0.022295 -0.052381
v  0.029330 -0.022052 -0.049477
v  0.047174 -0.021514 -0.038948
v  0.059625 -0.020762 -0.022397
v  -0.029494 -0.004731 0.019784
v  -0.018790 -0.004085 0.034014
v  -0.033933 -0.005463 0.002544
v  -0.031430 -0.006168 -0.015084
v  -0.022367 -0.006740 -0.030414
v  -0.008123 -0.007091 -0.041113
v  0.009133 -0.007168 -0.045553
v  0.026774 -0.006959 -0.043056
v  0.042115 -0.006496 -0.034004
v  0.052819 -0.005850 -0.019775
v  -0.024277 0.006453 0.001516
v  -0.020786 0.007029 0.015079
v  -0.022308 0.005899 -0.012350
v  -0.015179 0.005449 -0.024410
v  -0.003974 0.005173 -0.032826
v  0.009601 0.005112 -0.036319
v  0.023478 0.005276 -0.034355
v  0.035546 0.005641 -0.027234
v  0.043966 0.006149 -0.016040
v  -0.014013 0.014325 0.011501
v  -0.007366 0.014726 0.020337
v  -0.012365 0.007537 0.026273
v  -0.000297 0.007902 0.033394
v  -0.003449 -0.003622 0.043066
v  0.014192 -0.003413 0.045563
v  0.031448 -0.003490 0.041123
v  0.045692 -0.003841 0.030424
v  0.054755 -0.004413 0.015094
v  0.057258 -0.005118 -0.002534
v  0.052819 -0.005850 -0.019775
v  0.043966 0.006149 -0.016040
v  0.047458 0.006725 -0.002478
v  0.045489 0.007279 0.011389
v  0.038360 0.007729 0.023449
v  0.027155 0.008005 0.031865
v  0.013580 0.008066 0.035357
v  0.037104 0.013630 -0.013066
v  0.039861 0.014085 -0.002359
v  0.038307 0.014523 0.008588
v  0.032678 0.014878 0.018108
v  0.023833 0.015096 0.024752
v  0.013116 0.015144 0.027509
v  0.002161 0.015014 0.025959
v  0.031262 0.021607 -0.010604
v  0.033394 0.021958 -0.002325
v  0.032192 0.022297 0.006141
v  0.027840 0.022572 0.013503
v  0.020999 0.022740 0.018641
v  0.012712 0.022777 0.020773
v  0.004241 0.022677 0.019574
v  -0.003126 0.022455 0.015227
v  -0.008267 0.022144 0.008393
v  -0.016770 0.013871 0.000794
v  -0.015215 0.013433 -0.010153
v  -0.009587 0.013078 -0.019673
v  -0.000741 0.012860 -0.026317
v  0.009975 0.012812 -0.029074
v  0.020930 0.012942 -0.027524
v  0.030457 0.013229 -0.021903
v  0.037104 0.013630 -0.013066
v  -0.010398 0.021793 0.000114
v  -0.009196 0.021454 -0.008351
v  -0.004844 0.021180 -0.015713
v  0.001996 0.021011 -0.020851
v  0.010283 0.020974 -0.022983
v  0.018755 0.021074 -0.021785
v  0.026122 0.021297 -0.017438
v  0.031262 0.021607 -0.010604
v  -0.006651 0.029117 -0.000396
v  -0.005657 0.028837 -0.007396
v  -0.004889 0.029407 0.006450
v  -0.000638 0.029664 0.012100
v  0.005453 0.029848 0.015694
v  0.012458 0.029931 0.016685
v  0.019310 0.029900 0.014923
v  0.024966 0.029761 0.010674
v  0.028564 0.029534 0.004587
v  0.029558 0.029254 -0.002412
v  0.027796 0.028963 -0.009258
v  0.006057 0.038363 0.013474
v  0.000632 0.038199 0.010272
v  0.005666 0.047074 0.014085
v  -0.000104 0.046900 0.010681
v  0.003895 0.053100 0.018791
v  0.012555 0.053202 0.020017
v  0.012300 0.047153 0.015024
v  0.021027 0.053164 0.017838
v  0.018790 0.047124 0.013354
v  0.028019 0.052992 0.012585
v  0.024147 0.046992 0.009331
v  0.032469 0.052711 0.005059
v  0.027556 0.046777 0.003565
v  0.033697 0.052365 -0.003594
v  0.028497 0.046511 -0.003064
v  0.031518 0.052006 -0.012058
v  0.026828 0.046236 -0.009549
v  -0.003636 0.052872 0.014348
v  -0.004130 0.046657 0.005329
v  -0.008891 0.052555 0.007362
v  -0.005799 0.046382 -0.001155
v  -0.011070 0.052196 -0.001102
v  -0.004858 0.046117 -0.007784
v  -0.009841 0.051850 -0.009756
v  -0.001449 0.045902 -0.013550
v  -0.005392 0.051569 -0.017281
v  0.003908 0.045770 -0.017574
v  0.001601 0.051397 -0.022534
v  0.010398 0.045741 -0.019243
v  0.010072 0.051359 -0.024713
v  0.017032 0.045819 -0.018305
v  0.018732 0.051461 -0.023488
v  0.022802 0.045993 -0.014900
v  0.026263 0.051689 -0.019044
v  0.026828 0.046236 -0.009549
v  0.031518 0.052006 -0.012058
v  -0.011114 0.059529 -0.001402
v  -0.008935 0.059888 0.007062
v  -0.009886 0.059182 -0.010055
v  -0.005436 0.058902 -0.017581
v  0.001556 0.058729 -0.022834
v  0.010028 0.058692 -0.025013
v  0.018688 0.058794 -0.023787
v  0.026219 0.059021 -0.019344
v  0.031474 0.059339 -0.012358
v  -0.012163 0.065385 0.008375
v  -0.006077 0.065752 0.016465
v  -0.003680 0.060205 0.014048
v  0.003851 0.060432 0.018492
v  0.012511 0.060535 0.019717
v  0.020982 0.060497 0.017538
v  0.027975 0.060325 0.012285
v  0.032424 0.060044 0.004760
v  0.033653 0.059698 -0.003894
v  0.031474 0.059339 -0.012358
v  0.034635 0.064749 -0.014116
v  0.037159 0.065165 -0.004314
v  0.035736 0.065566 0.005708
v  0.030583 0.065891 0.014423
v  0.022485 0.066090 0.020506
v  0.012674 0.066134 0.023030
v  0.002645 0.066015 0.021611
v  0.035034 0.065886 -0.014358
v  0.037601 0.066309 -0.004386
v  0.036154 0.066717 0.005810
v  0.030912 0.067048 0.014677
v  0.022673 0.067251 0.020865
v  0.012692 0.067295 0.023433
v  0.002489 0.067175 0.021989
v  -0.006384 0.066907 0.016753
v  -0.012575 0.066533 0.008523
v  -0.014686 0.064969 -0.001427
v  -0.013263 0.064568 -0.011449
v  -0.008111 0.064243 -0.020165
v  -0.000012 0.064043 -0.026248
v  0.009798 0.063999 -0.028772
v  0.019828 0.064118 -0.027352
v  0.028549 0.064381 -0.022206
v  0.034635 0.064749 -0.014116
v  -0.015143 0.066110 -0.001449
v  -0.013695 0.065702 -0.011645
v  -0.008453 0.065371 -0.020512
v  -0.000214 0.065168 -0.026700
v  0.009766 0.065124 -0.029268
v  0.019970 0.065245 -0.027824
v  0.028843 0.065512 -0.022588
v  0.035034 0.065886 -0.014358
v  -0.009715 0.068271 0.007070
v  -0.004270 0.068600 0.014308
v  -0.011972 0.067899 -0.001699
v  -0.010699 0.067541 -0.010665
v  -0.006090 0.067250 -0.018462
v  0.001155 0.067071 -0.023904
v  0.009932 0.067032 -0.026162
v  0.018905 0.067138 -0.024892
v  0.026707 0.067374 -0.020288
v  0.032152 0.067703 -0.013050
v  -0.005935 0.068892 -0.002075
v  -0.004266 0.069167 0.004409
v  -0.004994 0.068627 -0.008705
v  -0.001585 0.068412 -0.014470
v  0.003772 0.068280 -0.018494
v  0.010261 0.068251 -0.020164
v  0.016896 0.068330 -0.019225
v  0.022666 0.068504 -0.015820
v  0.026691 0.068747 -0.010469
v  -0.000240 0.069411 0.009761
v  0.005529 0.069585 0.013165
v  0.003532 0.068836 0.018912
v  0.012505 0.068942 0.020182
v  0.021282 0.068903 0.017924
v  0.028527 0.068724 0.012482
v  0.033137 0.068433 0.004684
v  0.034410 0.068075 -0.004281
v  0.032152 0.067703 -0.013050
v  0.026691 0.068747 -0.010469
v  0.028361 0.069022 -0.003985
v  0.027419 0.069287 0.002645
v  0.024011 0.069502 0.008411
v  0.018654 0.069634 0.012434
v  0.012164 0.069663 0.014104
v  -0.018717 -0.086350 0.018172
v  -0.010735 -0.077939 0.028522
v  -0.018765 -0.078424 0.017848
v  -0.010687 -0.085865 0.028846
v  -0.022046 -0.086899 0.005240
v  -0.022094 -0.078973 0.004916
v  -0.020169 -0.087428 -0.007983
v  -0.020217 -0.079502 -0.008307
v  -0.013370 -0.087857 -0.019483
v  -0.013418 -0.079931 -0.019807
v  -0.002686 -0.088120 -0.027508
v  -0.002734 -0.080194 -0.027832
v  0.010258 -0.088178 -0.030838
v  0.010210 -0.080252 -0.031162
v  0.023491 -0.088021 -0.028966
v  0.023443 -0.080095 -0.029290
v  0.034999 -0.087674 -0.022176
v  0.034951 -0.079748 -0.022500
v  0.043028 -0.087189 -0.011502
v  0.042980 -0.079263 -0.011826
v  0.046358 -0.086640 0.001431
v  0.042980 -0.079263 -0.011826
v  0.046310 -0.078714 0.001107
v  0.043028 -0.087189 -0.011502
v  0.044480 -0.086111 0.014654
v  0.044432 -0.078185 0.014330
v  0.037682 -0.085682 0.026153
v  0.037634 -0.077756 0.025829
v  0.026997 -0.085419 0.034179
v  0.026949 -0.077493 0.033855
v  0.014053 -0.085361 0.037509
v  0.014005 -0.077435 0.037185
v  0.000820 -0.085518 0.035636
v  0.000772 -0.077592 0.035312
v  -0.018717 -0.086350 0.018172
v  0.012156 -0.086769 0.003335
v  -0.010687 -0.085865 0.028846
v  -0.022046 -0.086899 0.005240
v  -0.020169 -0.087428 -0.007983
v  -0.013370 -0.087857 -0.019483
v  -0.002686 -0.088120 -0.027508
v  0.010258 -0.088178 -0.030838
v  0.023491 -0.088021 -0.028966
v  0.034999 -0.087674 -0.022176
v  0.043028 -0.087189 -0.011502
v  0.046358 -0.086640 0.001431
v  0.044480 -0.086111 0.014654
v  0.037682 -0.085682 0.026153
v  0.026997 -0.085419 0.034179
v  0.014053 -0.085361 0.037509
v  0.000820 -0.085518 0.035636
v  0.003781 0.040615 0.006634
v  -0.004266 0.069167 0.004409
v  -0.000240 0.069411 0.009761
v  0.001108 0.040454 0.003081
v  -0.005935 0.068892 -0.002075
v  -0.000001 0.040271 -0.001225
v  -0.004994 0.068627 -0.008705
v  0.000624 0.040095 -0.005627
v  -0.001585 0.068412 -0.014470
v  0.002888 0.039952 -0.009456
v  0.003772 0.068280 -0.018494
v  0.006445 0.039864 -0.012128
v  0.010261 0.068251 -0.020164
v  0.010754 0.039845 -0.013236
v  0.016896 0.068330 -0.019225
v  0.015160 0.039897 -0.012613
v  0.022666 0.068504 -0.015820
v  0.018991 0.040013 -0.010352
v  0.026691 0.068747 -0.010469
v  0.021665 0.040174 -0.006799
v  0.021665 0.040174 -0.006799
v  0.028361 0.069022 -0.003985
v  0.026691 0.068747 -0.010469
v  0.022773 0.040357 -0.002493
v  0.027419 0.069287 0.002645
v  0.022148 0.040533 0.001909
v  0.024011 0.069502 0.008411
v  0.019885 0.040676 0.005738
v  0.018654 0.069634 0.012434
v  0.016327 0.040764 0.008410
v  0.012164 0.069663 0.014104
v  0.012018 0.040783 0.009518
v  0.005529 0.069585 0.013165
v  0.007612 0.040731 0.008895
v  0.003781 0.040615 0.006634
v  0.011386 0.040314 -0.001859
v  0.001108 0.040454 0.003081
v  -0.000001 0.040271 -0.001225
v  0.000624 0.040095 -0.005627
v  0.002888 0.039952 -0.009456
v  0.006445 0.039864 -0.012128
v  0.010754 0.039845 -0.013236
v  0.015160 0.039897 -0.012613
v  0.018991 0.040013 -0.010352
v  0.021665 0.040174 -0.006799
v  0.022773 0.040357 -0.002493
v  0.022148 0.040533 0.001909
v  0.019885 0.040676 0.005738
v  0.016327 0.040764 0.008410
v  0.012018 0.040783 0.009518
v  0.007612 0.040731 0.008895
v  0.023545 0.028707 -0.014908
v  0.027796 0.028963 -0.009258
v  0.017454 0.028523 -0.018503
v  0.010449 0.028440 -0.019494
v  0.003597 0.028471 -0.017731
v  -0.002059 0.028610 -0.013483
v  0.022171 0.037347 -0.013783
v  0.025957 0.037575 -0.008750
v  0.016746 0.037183 -0.016984
v  0.010507 0.037109 -0.017867
v  0.004404 0.037136 -0.016297
v  -0.000633 0.037260 -0.012513
v  -0.003838 0.037463 -0.007091
v  -0.004724 0.037712 -0.000857
v  -0.003154 0.037971 0.005240
v  0.012296 0.038437 0.014357
v  0.018399 0.038410 0.012787
v  0.023436 0.038286 0.009003
v  0.026642 0.038083 0.003581
v  0.027527 0.037834 -0.002653
v  0.025957 0.037575 -0.008750
v  -0.002431 0.088245 0.011314
v  -0.004264 0.068812 0.004424
v  -0.000238 0.069056 0.009775
v  -0.007187 0.087958 0.004992
v  -0.005933 0.068537 -0.002061
v  -0.009159 0.087633 -0.002668
v  -0.004992 0.068272 -0.008690
v  -0.008047 0.087320 -0.010500
v  -0.001583 0.068057 -0.014456
v  -0.004020 0.087065 -0.017312
v  0.003774 0.067925 -0.018479
v  0.002308 0.086910 -0.022065
v  0.010264 0.067896 -0.020149
v  0.009975 0.086875 -0.024038
v  0.016898 0.067975 -0.019210
v  0.017813 0.086968 -0.022929
v  0.022668 0.068149 -0.015806
v  0.024629 0.087174 -0.018907
v  0.026694 0.068392 -0.010454
v  0.029385 0.087461 -0.012584
v  0.029385 0.087461 -0.012584
v  0.028363 0.068667 -0.003970
v  0.026694 0.068392 -0.010454
v  0.031358 0.087786 -0.004924
v  0.027422 0.068932 0.002659
v  0.030246 0.088099 0.002908
v  0.024013 0.069147 0.008425
v  0.026219 0.088353 0.009719
v  0.018656 0.069279 0.012449
v  0.019890 0.088509 0.014473
v  0.012166 0.069308 0.014119
v  0.012223 0.088544 0.016445
v  0.005531 0.069230 0.013180
v  0.004385 0.088451 0.015336
v  -0.002431 0.088245 0.011314
v  0.011099 0.087709 -0.003796
v  -0.007187 0.087958 0.004992
v  -0.009159 0.087633 -0.002668
v  -0.008047 0.087320 -0.010500
v  -0.004020 0.087065 -0.017312
v  0.002308 0.086910 -0.022065
v  0.009975 0.086875 -0.024038
v  0.017813 0.086968 -0.022929
v  0.024629 0.087174 -0.018907
v  0.029385 0.087461 -0.012584
v  0.031358 0.087786 -0.004924
v  0.030246 0.088099 0.002908
v  0.026219 0.088353 0.009719
v  0.019890 0.088509 0.014473
v  0.012223 0.088544 0.016445
v  0.004385 0.088451 0.015336
v  -0.004264 0.068812 0.004424
v  0.011215 0.068602 -0.003015
v  -0.000238 0.069056 0.009775
v  -0.005933 0.068537 -0.002061
v  -0.004992 0.068272 -0.008690
v  -0.001583 0.068057 -0.014456
v  0.003774 0.067925 -0.018479
v  0.010264 0.067896 -0.020149
v  0.016898 0.067975 -0.019210
v  0.022668 0.068149 -0.015806
v  0.026694 0.068392 -0.010454
v  0.028363 0.068667 -0.003970
v  0.027422 0.068932 0.002659
v  0.024013 0.069147 0.008425
v  0.018656 0.069279 0.012449
v  0.012166 0.069308 0.014119
v  0.005531 0.069230 0.013180

vt  0.434865 0.078500 0.000000
vt  0.498021 0.030127 0.000000
vt  0.432644 0.032322 0.000000
vt  0.498016 0.076325 0.000000
vt  0.563398 0.032336 0.000000
vt  0.561167 0.078513 0.000000
vt  0.628098 0.038832 0.000000
vt  0.623902 0.084987 0.000000
vt  0.691437 0.049225 0.000000
vt  0.685847 0.095478 0.000000
vt  0.752739 0.062736 0.000000
vt  0.746752 0.109410 0.000000
vt  0.811429 0.077962 0.000000
vt  0.806633 0.125632 0.000000
vt  0.867238 0.092426 0.000000
vt  0.865971 0.141820 0.000000
vt  0.920205 0.101745 0.000000
vt  0.925643 0.153412 0.000000
vt  0.968882 0.099661 0.000000
vt  0.985767 0.151581 0.000000
vt  0.558568 0.136239 0.000000
vt  0.498010 0.134113 0.000000
vt  0.619021 0.142568 0.000000
vt  0.679334 0.152971 0.000000
vt  0.739637 0.167114 0.000000
vt  0.800355 0.184227 0.000000
vt  0.862370 0.202569 0.000000
vt  0.927080 0.218519 0.000000
vt  0.996008 0.225633 0.000000
vt  0.498004 0.191802 0.000000
vt  0.440259 0.193780 0.000000
vt  0.437451 0.136226 0.000000
vt  0.376997 0.142541 0.000000
vt  0.372129 0.084959 0.000000
vt  0.367942 0.038803 0.000000
vt  0.310180 0.095436 0.000000
vt  0.304600 0.049181 0.000000
vt  0.249273 0.109355 0.000000
vt  0.243296 0.062679 0.000000
vt  0.189388 0.125562 0.000000
vt  0.184603 0.077892 0.000000
vt  0.130046 0.141737 0.000000
vt  0.128790 0.092343 0.000000
vt  0.070372 0.153315 0.000000
vt  0.075821 0.101650 0.000000
vt  0.010249 0.151471 0.000000
vt  0.027145 0.099555 0.000000
vt  0.002733 0.225520 0.000000
vt  0.068920 0.218422 0.000000
vt  0.133635 0.202487 0.000000
vt  0.195652 0.184158 0.000000
vt  0.256374 0.167059 0.000000
vt  0.316682 0.152929 0.000000
vt  0.010850 0.304592 0.000000
vt  0.079651 0.283124 0.000000
vt  0.144148 0.261252 0.000000
vt  0.205778 0.240879 0.000000
vt  0.265567 0.223444 0.000000
vt  0.324277 0.209641 0.000000
vt  0.382407 0.199730 0.000000
vt  0.044659 0.378212 0.000000
vt  0.104402 0.344071 0.000000
vt  0.163575 0.317238 0.000000
vt  0.221609 0.295723 0.000000
vt  0.278365 0.278724 0.000000
vt  0.334075 0.265829 0.000000
vt  0.389065 0.256778 0.000000
vt  0.443629 0.251410 0.000000
vt  0.497997 0.249635 0.000000
vt  0.555748 0.193793 0.000000
vt  0.613599 0.199756 0.000000
vt  0.671727 0.209680 0.000000
vt  0.730433 0.223496 0.000000
vt  0.790218 0.240946 0.000000
vt  0.851843 0.261333 0.000000
vt  0.916336 0.283219 0.000000
vt  0.985132 0.304702 0.000000
vt  0.552366 0.251423 0.000000
vt  0.606928 0.256803 0.000000
vt  0.661917 0.265866 0.000000
vt  0.717623 0.278775 0.000000
vt  0.774375 0.295787 0.000000
vt  0.832404 0.317315 0.000000
vt  0.891571 0.344160 0.000000
vt  0.951307 0.378315 0.000000
vt  0.497992 0.306457 0.000000
vt  0.447645 0.307986 0.000000
vt  0.548337 0.307997 0.000000
vt  0.598843 0.312646 0.000000
vt  0.649676 0.320549 0.000000
vt  0.700989 0.332015 0.000000
vt  0.752791 0.347657 0.000000
vt  0.804619 0.368651 0.000000
vt  0.854877 0.397085 0.000000
vt  0.900022 0.436319 0.000000
vt  0.543891 0.361401 0.000000
vt  0.497985 0.360118 0.000000
vt  0.589820 0.365272 0.000000
vt  0.635781 0.371863 0.000000
vt  0.681711 0.381489 0.000000
vt  0.727310 0.394845 0.000000
vt  0.771607 0.413321 0.000000
vt  0.812101 0.439251 0.000000
vt  0.843584 0.475399 0.000000
vt  0.497981 0.398110 0.000000
vt  0.455510 0.399192 0.000000
vt  0.452079 0.361390 0.000000
vt  0.406148 0.365250 0.000000
vt  0.397138 0.312623 0.000000
vt  0.346303 0.320514 0.000000
vt  0.294987 0.331968 0.000000
vt  0.243181 0.347598 0.000000
vt  0.191350 0.368579 0.000000
vt  0.141084 0.397003 0.000000
vt  0.095932 0.436226 0.000000
vt  0.152359 0.475319 0.000000
vt  0.183851 0.439177 0.000000
vt  0.224351 0.413257 0.000000
vt  0.268652 0.394791 0.000000
vt  0.314253 0.381446 0.000000
vt  0.360186 0.371830 0.000000
vt  0.194086 0.495390 0.000000
vt  0.217477 0.464902 0.000000
vt  0.250895 0.442897 0.000000
vt  0.289136 0.427321 0.000000
vt  0.329594 0.416112 0.000000
vt  0.371109 0.408025 0.000000
vt  0.413166 0.402468 0.000000
vt  0.230001 0.510183 0.000000
vt  0.249320 0.487307 0.000000
vt  0.277155 0.470986 0.000000
vt  0.309673 0.459139 0.000000
vt  0.344975 0.450281 0.000000
vt  0.382014 0.443670 0.000000
vt  0.420140 0.439013 0.000000
vt  0.458909 0.436228 0.000000
vt  0.497977 0.435302 0.000000
vt  0.540451 0.399202 0.000000
vt  0.582794 0.402488 0.000000
vt  0.624849 0.408056 0.000000
vt  0.666362 0.416152 0.000000
vt  0.706818 0.427372 0.000000
vt  0.745055 0.442958 0.000000
vt  0.778468 0.464969 0.000000
vt  0.801852 0.495462 0.000000
vt  0.537043 0.436238 0.000000
vt  0.575811 0.439033 0.000000
vt  0.613936 0.443698 0.000000
vt  0.650973 0.450318 0.000000
vt  0.686273 0.459185 0.000000
vt  0.718789 0.471041 0.000000
vt  0.746621 0.487368 0.000000
vt  0.765936 0.510248 0.000000
vt  0.534411 0.466795 0.000000
vt  0.570437 0.469302 0.000000
vt  0.497972 0.465950 0.000000
vt  0.461532 0.466786 0.000000
vt  0.425506 0.469284 0.000000
vt  0.390355 0.473389 0.000000
vt  0.356641 0.479039 0.000000
vt  0.325072 0.486220 0.000000
vt  0.296533 0.495083 0.000000
vt  0.272069 0.506258 0.000000
vt  0.253112 0.521841 0.000000
vt  0.430189 0.501561 0.000000
vt  0.463850 0.499219 0.000000
vt  0.433575 0.533302 0.000000
vt  0.465573 0.530985 0.000000
vt  0.435631 0.561307 0.000000
vt  0.405103 0.565087 0.000000
vt  0.402359 0.537032 0.000000
vt  0.375236 0.570009 0.000000
vt  0.372318 0.541964 0.000000
vt  0.346052 0.575639 0.000000
vt  0.343817 0.547770 0.000000
vt  0.317350 0.581186 0.000000
vt  0.317123 0.553877 0.000000
vt  0.288619 0.584877 0.000000
vt  0.292260 0.559074 0.000000
vt  0.259284 0.582380 0.000000
vt  0.268801 0.560034 0.000000
vt  0.466661 0.558937 0.000000
vt  0.497963 0.530201 0.000000
vt  0.497960 0.558132 0.000000
vt  0.530352 0.530993 0.000000
vt  0.529258 0.558945 0.000000
vt  0.562351 0.533319 0.000000
vt  0.560287 0.561322 0.000000
vt  0.593566 0.537057 0.000000
vt  0.590813 0.565111 0.000000
vt  0.623606 0.541997 0.000000
vt  0.620679 0.570041 0.000000
vt  0.652106 0.547811 0.000000
vt  0.649862 0.575679 0.000000
vt  0.678798 0.553925 0.000000
vt  0.678563 0.581233 0.000000
vt  0.703660 0.559127 0.000000
vt  0.707291 0.584932 0.000000
vt  0.727119 0.560094 0.000000
vt  0.736627 0.582443 0.000000
vt  0.528491 0.585026 0.000000
vt  0.497956 0.584193 0.000000
vt  0.558886 0.587452 0.000000
vt  0.589060 0.591265 0.000000
vt  0.619038 0.596120 0.000000
vt  0.649010 0.601471 0.000000
vt  0.679353 0.606449 0.000000
vt  0.710380 0.609521 0.000000
vt  0.741110 0.607909 0.000000
vt  0.497953 0.606851 0.000000
vt  0.468020 0.607696 0.000000
vt  0.467421 0.585019 0.000000
vt  0.437024 0.587436 0.000000
vt  0.406849 0.591242 0.000000
vt  0.376870 0.596089 0.000000
vt  0.346896 0.601431 0.000000
vt  0.316552 0.606401 0.000000
vt  0.285523 0.609466 0.000000
vt  0.254794 0.607846 0.000000
vt  0.249667 0.632729 0.000000
vt  0.283816 0.631730 0.000000
vt  0.316440 0.628428 0.000000
vt  0.347752 0.623831 0.000000
vt  0.378197 0.618740 0.000000
vt  0.408221 0.613976 0.000000
vt  0.438118 0.610154 0.000000
vt  0.249749 0.641010 0.000000
vt  0.283693 0.635480 0.000000
vt  0.316079 0.632021 0.000000
vt  0.347267 0.627881 0.000000
vt  0.377738 0.623125 0.000000
vt  0.407866 0.618497 0.000000
vt  0.437883 0.614684 0.000000
vt  0.467905 0.612192 0.000000
vt  0.497953 0.611330 0.000000
vt  0.527886 0.607704 0.000000
vt  0.557787 0.610170 0.000000
vt  0.587681 0.614000 0.000000
vt  0.617703 0.618772 0.000000
vt  0.648149 0.623871 0.000000
vt  0.679459 0.628477 0.000000
vt  0.712082 0.631786 0.000000
vt  0.746231 0.632792 0.000000
vt  0.528000 0.612201 0.000000
vt  0.558020 0.614700 0.000000
vt  0.588035 0.618522 0.000000
vt  0.618161 0.623157 0.000000
vt  0.648631 0.627922 0.000000
vt  0.679819 0.632069 0.000000
vt  0.712204 0.635535 0.000000
vt  0.746146 0.641073 0.000000
vt  0.497951 0.624147 0.000000
vt  0.468300 0.624996 0.000000
vt  0.527601 0.625005 0.000000
vt  0.557288 0.627457 0.000000
vt  0.587080 0.631167 0.000000
vt  0.617084 0.635581 0.000000
vt  0.647416 0.639978 0.000000
vt  0.678132 0.643720 0.000000
vt  0.709156 0.647377 0.000000
vt  0.739308 0.655737 0.000000
vt  0.526614 0.646054 0.000000
vt  0.497948 0.645231 0.000000
vt  0.555468 0.648412 0.000000
vt  0.584705 0.651988 0.000000
vt  0.614483 0.656248 0.000000
vt  0.644766 0.660476 0.000000
vt  0.674957 0.664085 0.000000
vt  0.703392 0.667668 0.000000
vt  0.727383 0.675154 0.000000
vt  0.469282 0.646046 0.000000
vt  0.440425 0.648395 0.000000
vt  0.438612 0.627440 0.000000
vt  0.408817 0.631142 0.000000
vt  0.378812 0.635548 0.000000
vt  0.348479 0.639937 0.000000
vt  0.317763 0.643673 0.000000
vt  0.286739 0.647322 0.000000
vt  0.256585 0.655676 0.000000
vt  0.268506 0.675095 0.000000
vt  0.292498 0.667615 0.000000
vt  0.320934 0.664038 0.000000
vt  0.351124 0.660436 0.000000
vt  0.381408 0.656216 0.000000
vt  0.411187 0.651964 0.000000
vt  0.498024 0.003283 0.000000
vt  0.432644 0.032322 0.000000
vt  0.498021 0.030127 0.000000
vt  0.431121 0.005505 0.000000
vt  0.564926 0.005520 0.000000
vt  0.563398 0.032336 0.000000
vt  0.631037 0.012080 0.000000
vt  0.628098 0.038832 0.000000
vt  0.695528 0.022520 0.000000
vt  0.691437 0.049225 0.000000
vt  0.757505 0.035966 0.000000
vt  0.752739 0.062736 0.000000
vt  0.816017 0.050892 0.000000
vt  0.811429 0.077962 0.000000
vt  0.870177 0.064736 0.000000
vt  0.867238 0.092426 0.000000
vt  0.919722 0.073270 0.000000
vt  0.920205 0.101745 0.000000
vt  0.966446 0.071995 0.000000
vt  0.968882 0.099661 0.000000
vt  0.076310 0.073175 0.000000
vt  0.027145 0.099555 0.000000
vt  0.075821 0.101650 0.000000
vt  0.029586 0.071889 0.000000
vt  0.125857 0.064653 0.000000
vt  0.128790 0.092343 0.000000
vt  0.180020 0.050821 0.000000
vt  0.184603 0.077892 0.000000
vt  0.238535 0.035908 0.000000
vt  0.243296 0.062679 0.000000
vt  0.300515 0.022476 0.000000
vt  0.304600 0.049181 0.000000
vt  0.365008 0.012050 0.000000
vt  0.367942 0.038803 0.000000
vt  0.886553 0.850177 0.000000
vt  0.935267 0.813977 0.000000
vt  0.876409 0.828781 0.000000
vt  0.904115 0.866063 0.000000
vt  0.926420 0.874019 0.000000
vt  0.950075 0.872833 0.000000
vt  0.971477 0.862683 0.000000
vt  0.987359 0.845118 0.000000
vt  0.995312 0.822816 0.000000
vt  0.994124 0.799170 0.000000
vt  0.983979 0.777775 0.000000
vt  0.966416 0.761889 0.000000
vt  0.944110 0.753933 0.000000
vt  0.920458 0.755120 0.000000
vt  0.899060 0.765268 0.000000
vt  0.883176 0.782831 0.000000
vt  0.875223 0.805134 0.000000
vt  0.214233 0.773073 0.000000
vt  0.197231 0.885156 0.000000
vt  0.222854 0.885156 0.000000
vt  0.197152 0.773073 0.000000
vt  0.171605 0.885156 0.000000
vt  0.180070 0.773073 0.000000
vt  0.146126 0.885156 0.000000
vt  0.163088 0.773073 0.000000
vt  0.120939 0.885156 0.000000
vt  0.146305 0.773073 0.000000
vt  0.096192 0.885156 0.000000
vt  0.129821 0.773073 0.000000
vt  0.072030 0.885156 0.000000
vt  0.113731 0.773073 0.000000
vt  0.048593 0.885156 0.000000
vt  0.098133 0.773073 0.000000
vt  0.026020 0.885156 0.000000
vt  0.083117 0.773073 0.000000
vt  0.004442 0.885156 0.000000
vt  0.068778 0.773073 0.000000
vt  0.325458 0.773073 0.000000
vt  0.368376 0.885156 0.000000
vt  0.389934 0.885156 0.000000
vt  0.311133 0.773073 0.000000
vt  0.345821 0.885156 0.000000
vt  0.296130 0.773073 0.000000
vt  0.322399 0.885156 0.000000
vt  0.280543 0.773073 0.000000
vt  0.298248 0.885156 0.000000
vt  0.264464 0.773073 0.000000
vt  0.273509 0.885156 0.000000
vt  0.247988 0.773073 0.000000
vt  0.248328 0.885156 0.000000
vt  0.231212 0.773073 0.000000
vt  0.010291 0.919787 0.000000
vt  0.054415 0.941864 0.000000
vt  0.022095 0.904584 0.000000
vt  0.038819 0.895054 0.000000
vt  0.057916 0.892649 0.000000
vt  0.076483 0.897735 0.000000
vt  0.091693 0.909543 0.000000
vt  0.101225 0.926272 0.000000
vt  0.103629 0.945376 0.000000
vt  0.098537 0.963944 0.000000
vt  0.086728 0.979148 0.000000
vt  0.069998 0.988676 0.000000
vt  0.050894 0.991076 0.000000
vt  0.032327 0.985981 0.000000
vt  0.017126 0.974171 0.000000
vt  0.007601 0.957446 0.000000
vt  0.005201 0.938349 0.000000
vt  0.723867 0.506315 0.000000
vt  0.742821 0.521902 0.000000
vt  0.699405 0.495135 0.000000
vt  0.670867 0.486264 0.000000
vt  0.639300 0.479075 0.000000
vt  0.605587 0.473415 0.000000
vt  0.707222 0.530694 0.000000
vt  0.727255 0.538223 0.000000
vt  0.684666 0.523500 0.000000
vt  0.658628 0.516624 0.000000
vt  0.629642 0.510476 0.000000
vt  0.598455 0.505382 0.000000
vt  0.565745 0.501578 0.000000
vt  0.532084 0.499228 0.000000
vt  0.497967 0.498430 0.000000
vt  0.397478 0.505357 0.000000
vt  0.366291 0.510443 0.000000
vt  0.337303 0.516583 0.000000
vt  0.311263 0.523451 0.000000
vt  0.288707 0.530640 0.000000
vt  0.268674 0.538164 0.000000
vt  0.209814 0.761541 0.000000
vt  0.238886 0.687292 0.000000
vt  0.213206 0.687292 0.000000
vt  0.240155 0.761541 0.000000
vt  0.264538 0.687292 0.000000
vt  0.270463 0.761541 0.000000
vt  0.290062 0.687292 0.000000
vt  0.300620 0.761541 0.000000
vt  0.315356 0.687292 0.000000
vt  0.330505 0.761541 0.000000
vt  0.340323 0.687292 0.000000
vt  0.360001 0.761541 0.000000
vt  0.364863 0.687292 0.000000
vt  0.388993 0.761541 0.000000
vt  0.388879 0.687292 0.000000
vt  0.417366 0.761541 0.000000
vt  0.412277 0.687292 0.000000
vt  0.445008 0.761541 0.000000
vt  0.434965 0.687292 0.000000
vt  0.471812 0.761541 0.000000
vt  0.006459 0.761541 0.000000
vt  0.064164 0.687292 0.000000
vt  0.041078 0.687292 0.000000
vt  0.033733 0.761541 0.000000
vt  0.087911 0.687292 0.000000
vt  0.061787 0.761541 0.000000
vt  0.112225 0.687292 0.000000
vt  0.090511 0.761541 0.000000
vt  0.137010 0.687292 0.000000
vt  0.119792 0.761541 0.000000
vt  0.162168 0.687292 0.000000
vt  0.149514 0.761541 0.000000
vt  0.187600 0.687292 0.000000
vt  0.179561 0.761541 0.000000
vt  0.006662 0.538443 0.000000
vt  0.095842 0.560874 0.000000
vt  0.022033 0.506025 0.000000
vt  0.048645 0.481952 0.000000
vt  0.082445 0.469898 0.000000
vt  0.118286 0.471698 0.000000
vt  0.150710 0.487078 0.000000
vt  0.174776 0.513695 0.000000
vt  0.186821 0.547487 0.000000
vt  0.185021 0.583317 0.000000
vt  0.169647 0.615730 0.000000
vt  0.143041 0.639795 0.000000
vt  0.109245 0.651850 0.000000
vt  0.073405 0.650053 0.000000
vt  0.040983 0.634675 0.000000
vt  0.016916 0.608065 0.000000
vt  0.004864 0.574273 0.000000
vt  0.893917 0.972779 0.000000
vt  0.939083 0.939219 0.000000
vt  0.884512 0.952944 0.000000
vt  0.910198 0.987510 0.000000
vt  0.930881 0.994887 0.000000
vt  0.952811 0.993788 0.000000
vt  0.972652 0.984379 0.000000
vt  0.987379 0.968093 0.000000
vt  0.994753 0.947415 0.000000
vt  0.993653 0.925491 0.000000
vt  0.984247 0.905657 0.000000
vt  0.967965 0.890927 0.000000
vt  0.947280 0.883551 0.000000
vt  0.925350 0.884652 0.000000
vt  0.905512 0.894061 0.000000
vt  0.890788 0.910344 0.000000
vt  0.883414 0.931021 0.000000

vn  -0.721649 0.298917 -0.624397
vn  -0.458524 0.458524 -0.761256
vn  -0.599091 0.248151 -0.761256
vn  -0.552327 0.552326 -0.624397
vn  -0.248152 0.599091 -0.761256
vn  -0.298917 0.721649 -0.624397
vn  0.000000 0.648451 -0.761256
vn  0.000000 0.781107 -0.624397
vn  0.248151 0.599091 -0.761256
vn  0.298916 0.721649 -0.624397
vn  0.458524 0.458524 -0.761256
vn  0.552326 0.552327 -0.624397
vn  0.599091 0.248152 -0.761256
vn  0.721649 0.298917 -0.624397
vn  0.648451 0.000000 -0.761256
vn  0.781107 0.000000 -0.624397
vn  0.599091 -0.248151 -0.761256
vn  0.721649 -0.298917 -0.624397
vn  0.458524 -0.458524 -0.761256
vn  0.552327 -0.552326 -0.624397
vn  -0.363992 0.878753 -0.308713
vn  -0.672569 0.672568 -0.308713
vn  -0.000001 0.951155 -0.308714
vn  0.363991 0.878753 -0.308713
vn  0.672568 0.672569 -0.308713
vn  0.878753 0.363992 -0.308713
vn  0.951155 0.000000 -0.308714
vn  0.878753 -0.363991 -0.308713
vn  0.672568 -0.672568 -0.308714
vn  -0.707107 0.707106 -0.000944
vn  -0.923879 0.382683 -0.000944
vn  -0.878753 0.363991 -0.308714
vn  -0.951155 0.000000 -0.308713
vn  -0.781107 0.000000 -0.624397
vn  -0.648451 0.000000 -0.761256
vn  -0.721649 -0.298917 -0.624397
vn  -0.599091 -0.248152 -0.761256
vn  -0.552326 -0.552326 -0.624397
vn  -0.458524 -0.458524 -0.761256
vn  -0.298917 -0.721649 -0.624397
vn  -0.248152 -0.599091 -0.761256
vn  0.000000 -0.781107 -0.624397
vn  0.000000 -0.648451 -0.761256
vn  0.298917 -0.721649 -0.624397
vn  0.248152 -0.599091 -0.761256
vn  0.552327 -0.552326 -0.624397
vn  0.458524 -0.458524 -0.761256
vn  0.672568 -0.672568 -0.308714
vn  0.363991 -0.878753 -0.308713
vn  0.000000 -0.951155 -0.308714
vn  -0.363991 -0.878753 -0.308713
vn  -0.672568 -0.672568 -0.308714
vn  -0.878753 -0.363991 -0.308713
vn  0.707107 -0.707106 -0.000944
vn  0.382683 -0.923879 -0.000944
vn  0.000000 -1.000000 -0.000944
vn  -0.382683 -0.923879 -0.000944
vn  -0.707107 -0.707106 -0.000944
vn  -0.923879 -0.382683 -0.000944
vn  -1.000000 0.000000 -0.000944
vn  0.674559 -0.674559 0.299900
vn  0.365069 -0.881354 0.299900
vn  0.000000 -0.953971 0.299900
vn  -0.365069 -0.881354 0.299900
vn  -0.674559 -0.674559 0.299900
vn  -0.881354 -0.365069 0.299900
vn  -0.953971 0.000000 0.299900
vn  -0.881354 0.365068 0.299900
vn  -0.674560 0.674559 0.299900
vn  -0.382684 0.923879 -0.000944
vn  0.000000 1.000000 -0.000944
vn  0.382683 0.923879 -0.000944
vn  0.707106 0.707107 -0.000944
vn  0.923879 0.382684 -0.000944
vn  1.000000 0.000000 -0.000944
vn  0.923879 -0.382683 -0.000944
vn  0.707107 -0.707106 -0.000944
vn  -0.365069 0.881354 0.299900
vn  0.000000 0.953971 0.299900
vn  0.365068 0.881354 0.299900
vn  0.674559 0.674559 0.299900
vn  0.881354 0.365069 0.299900
vn  0.953971 0.000000 0.299900
vn  0.881354 -0.365068 0.299900
vn  0.674559 -0.674559 0.299900
vn  -0.592923 0.592922 0.544872
vn  -0.774691 0.320887 0.544872
vn  -0.320888 0.774691 0.544872
vn  0.000000 0.838519 0.544872
vn  0.320887 0.774691 0.544872
vn  0.592923 0.592923 0.544872
vn  0.774691 0.320888 0.544872
vn  0.838519 0.000000 0.544872
vn  0.774691 -0.320887 0.544872
vn  0.592923 -0.592923 0.544872
vn  -0.282172 0.681223 0.675511
vn  -0.521386 0.521385 0.675511
vn  0.000000 0.737350 0.675511
vn  0.282171 0.681223 0.675511
vn  0.521385 0.521386 0.675511
vn  0.681223 0.282172 0.675511
vn  0.737350 0.000000 0.675511
vn  0.681223 -0.282172 0.675511
vn  0.521386 -0.521385 0.675511
vn  -0.522261 0.522261 0.674156
vn  -0.682367 0.282645 0.674156
vn  -0.681223 0.282171 0.675511
vn  -0.737350 0.000000 0.675511
vn  -0.838519 0.000000 0.544872
vn  -0.774691 -0.320888 0.544872
vn  -0.592923 -0.592923 0.544872
vn  -0.320887 -0.774691 0.544872
vn  0.000000 -0.838519 0.544872
vn  0.320888 -0.774691 0.544872
vn  0.592923 -0.592923 0.544872
vn  0.521386 -0.521385 0.675511
vn  0.282172 -0.681222 0.675511
vn  0.000000 -0.737350 0.675511
vn  -0.282172 -0.681223 0.675511
vn  -0.521385 -0.521385 0.675511
vn  -0.681223 -0.282172 0.675511
vn  0.522261 -0.522261 0.674156
vn  0.282646 -0.682367 0.674156
vn  0.000000 -0.738589 0.674156
vn  -0.282646 -0.682367 0.674156
vn  -0.522261 -0.522261 0.674156
vn  -0.682367 -0.282646 0.674156
vn  -0.738589 0.000000 0.674156
vn  0.591090 -0.591090 0.548840
vn  0.319896 -0.772296 0.548840
vn  0.000000 -0.835927 0.548840
vn  -0.319895 -0.772296 0.548840
vn  -0.591090 -0.591090 0.548840
vn  -0.772296 -0.319896 0.548840
vn  -0.835927 0.000000 0.548840
vn  -0.772296 0.319895 0.548840
vn  -0.591090 0.591090 0.548840
vn  -0.282646 0.682367 0.674156
vn  -0.000001 0.738589 0.674156
vn  0.282645 0.682368 0.674156
vn  0.522261 0.522262 0.674156
vn  0.682367 0.282646 0.674156
vn  0.738589 0.000000 0.674156
vn  0.682367 -0.282646 0.674156
vn  0.522261 -0.522261 0.674156
vn  -0.319896 0.772296 0.548840
vn  -0.000001 0.835927 0.548840
vn  0.319895 0.772296 0.548840
vn  0.591089 0.591090 0.548840
vn  0.772296 0.319895 0.548840
vn  0.835927 0.000000 0.548840
vn  0.772296 -0.319896 0.548840
vn  0.591090 -0.591090 0.548840
vn  -0.359096 0.866934 0.345653
vn  -0.000001 0.938362 0.345653
vn  -0.663522 0.663522 0.345653
vn  -0.866934 0.359096 0.345653
vn  -0.938362 0.000000 0.345654
vn  -0.866934 -0.359096 0.345653
vn  -0.663522 -0.663522 0.345653
vn  -0.359095 -0.866934 0.345653
vn  0.000000 -0.938362 0.345653
vn  0.359096 -0.866933 0.345654
vn  0.663523 -0.663522 0.345653
vn  -0.998505 0.000000 0.054659
vn  -0.922499 0.382111 0.054659
vn  -0.910653 0.000000 -0.413172
vn  -0.841334 0.348492 -0.413172
vn  -0.933217 0.000000 -0.359312
vn  -0.862180 -0.357127 -0.359313
vn  -0.841334 -0.348492 -0.413172
vn  -0.659884 -0.659884 -0.359313
vn  -0.643929 -0.643929 -0.413172
vn  -0.357127 -0.862181 -0.359312
vn  -0.348492 -0.841334 -0.413172
vn  0.000000 -0.933217 -0.359312
vn  0.000000 -0.910653 -0.413171
vn  0.357127 -0.862181 -0.359312
vn  0.348492 -0.841334 -0.413172
vn  0.659885 -0.659884 -0.359312
vn  0.643929 -0.643929 -0.413172
vn  -0.862181 0.357127 -0.359312
vn  -0.643929 0.643929 -0.413172
vn  -0.659885 0.659884 -0.359313
vn  -0.348492 0.841334 -0.413172
vn  -0.357127 0.862180 -0.359313
vn  0.000000 0.910653 -0.413172
vn  -0.000001 0.933217 -0.359313
vn  0.348491 0.841334 -0.413172
vn  0.357126 0.862181 -0.359313
vn  0.643929 0.643929 -0.413172
vn  0.659884 0.659885 -0.359312
vn  0.841334 0.348492 -0.413172
vn  0.862180 0.357128 -0.359313
vn  0.910653 0.000000 -0.413172
vn  0.933217 0.000000 -0.359312
vn  0.841334 -0.348492 -0.413172
vn  0.862181 -0.357127 -0.359312
vn  0.643929 -0.643929 -0.413172
vn  0.659885 -0.659884 -0.359312
vn  -0.366836 0.885620 -0.284797
vn  -0.677824 0.677823 -0.284797
vn  -0.000001 0.958588 -0.284797
vn  0.366835 0.885620 -0.284797
vn  0.677824 0.677824 -0.284797
vn  0.885620 0.366836 -0.284797
vn  0.958588 0.000000 -0.284797
vn  0.885620 -0.366835 -0.284797
vn  0.677824 -0.677824 -0.284797
vn  -0.628620 0.628618 -0.457905
vn  -0.821331 0.340206 -0.457903
vn  -0.885620 0.366835 -0.284797
vn  -0.958588 0.000000 -0.284797
vn  -0.885620 -0.366836 -0.284797
vn  -0.677824 -0.677824 -0.284797
vn  -0.366836 -0.885619 -0.284798
vn  0.000000 -0.958588 -0.284797
vn  0.366836 -0.885620 -0.284797
vn  0.677824 -0.677824 -0.284797
vn  0.628620 -0.628618 -0.457905
vn  0.340208 -0.821329 -0.457906
vn  0.000001 -0.889002 -0.457904
vn  -0.340206 -0.821331 -0.457904
vn  -0.628619 -0.628619 -0.457905
vn  -0.821331 -0.340206 -0.457904
vn  -0.889002 0.000000 -0.457903
vn  0.664580 -0.664580 0.341566
vn  0.359670 -0.868315 0.341564
vn  0.000002 -0.939857 0.341567
vn  -0.359667 -0.868315 0.341569
vn  -0.664579 -0.664580 0.341567
vn  -0.868315 -0.359668 0.341567
vn  -0.939857 0.000000 0.341568
vn  -0.868315 0.359668 0.341568
vn  -0.664580 0.664579 0.341566
vn  -0.340207 0.821329 -0.457906
vn  -0.000001 0.889001 -0.457905
vn  0.340206 0.821331 -0.457904
vn  0.628619 0.628619 -0.457904
vn  0.821331 0.340206 -0.457904
vn  0.889002 0.000000 -0.457903
vn  0.821331 -0.340206 -0.457903
vn  0.628620 -0.628618 -0.457905
vn  -0.359669 0.868316 0.341564
vn  0.000000 0.939858 0.341565
vn  0.359668 0.868315 0.341567
vn  0.664579 0.664579 0.341568
vn  0.868315 0.359668 0.341567
vn  0.939857 0.000000 0.341568
vn  0.868315 -0.359668 0.341568
vn  0.664580 -0.664580 0.341566
vn  -0.231656 0.231656 0.944813
vn  -0.302674 0.125370 0.944813
vn  -0.125371 0.302675 0.944812
vn  0.000000 0.327613 0.944812
vn  0.125371 0.302673 0.944813
vn  0.231656 0.231656 0.944813
vn  0.302673 0.125372 0.944813
vn  0.327612 0.000000 0.944812
vn  0.302674 -0.125372 0.944812
vn  0.231656 -0.231657 0.944812
vn  -0.060620 0.146351 0.987374
vn  -0.112012 0.112010 0.987374
vn  0.000000 0.158408 0.987374
vn  0.060620 0.146350 0.987374
vn  0.112012 0.112013 0.987374
vn  0.146350 0.060621 0.987374
vn  0.158409 0.000000 0.987374
vn  0.146350 -0.060620 0.987374
vn  0.112012 -0.112013 0.987374
vn  -0.146350 0.060618 0.987374
vn  -0.158409 0.000000 0.987374
vn  -0.327612 0.000000 0.944812
vn  -0.302673 -0.125371 0.944813
vn  -0.231656 -0.231656 0.944813
vn  -0.125371 -0.302673 0.944813
vn  0.000000 -0.327611 0.944813
vn  0.125371 -0.302674 0.944812
vn  0.231656 -0.231657 0.944812
vn  0.112012 -0.112013 0.987374
vn  0.060620 -0.146350 0.987374
vn  0.000000 -0.158409 0.987374
vn  -0.060620 -0.146351 0.987374
vn  -0.112012 -0.112012 0.987374
vn  -0.146351 -0.060620 0.987374
vn  -0.707107 0.707107 0.000000
vn  -0.923880 0.382683 0.000000
vn  -0.707107 0.707107 0.000000
vn  -0.923880 0.382683 0.000000
vn  -0.382684 0.923879 0.000000
vn  -0.382684 0.923879 0.000000
vn  -0.000001 1.000000 0.000000
vn  -0.000001 1.000000 0.000000
vn  0.382683 0.923880 0.000000
vn  0.382683 0.923880 0.000000
vn  0.707107 0.707107 0.000000
vn  0.707107 0.707107 0.000000
vn  0.923879 0.382684 0.000000
vn  0.923879 0.382684 0.000000
vn  1.000000 0.000001 0.000000
vn  1.000000 0.000001 0.000000
vn  0.923880 -0.382683 0.000000
vn  0.923880 -0.382683 0.000000
vn  0.707107 -0.707107 0.000000
vn  0.707107 -0.707107 0.000000
vn  0.382684 -0.923879 0.000000
vn  0.707107 -0.707107 0.000000
vn  0.382684 -0.923879 0.000000
vn  0.707107 -0.707107 0.000000
vn  0.000000 -1.000000 0.000000
vn  0.000000 -1.000000 0.000000
vn  -0.382683 -0.923880 0.000000
vn  -0.382683 -0.923880 0.000000
vn  -0.707107 -0.707107 0.000000
vn  -0.707107 -0.707107 0.000000
vn  -0.923879 -0.382684 0.000000
vn  -0.923879 -0.382684 0.000000
vn  -1.000000 0.000000 0.000000
vn  -1.000000 0.000000 0.000000
vn  0.000000 0.000000 -1.000000
vn  0.000000 0.000000 -1.000000
vn  0.000000 0.000000 -1.000000
vn  0.000000 0.000000 -1.000000
vn  0.000000 0.000000 -1.000000
vn  0.000000 0.000000 -1.000000
vn  0.000000 0.000000 -1.000000
vn  0.000000 0.000000 -1.000000
vn  0.000000 0.000000 -1.000000
vn  0.000000 0.000000 -1.000000
vn  0.000000 0.000000 -1.000000
vn  0.000000 0.000000 -1.000000
vn  0.000000 0.000000 -1.000000
vn  0.000000 0.000000 -1.000000
vn  0.000000 0.000000 -1.000000
vn  0.000000 0.000000 -1.000000
vn  0.000000 0.000000 -1.000000
vn  0.579814 -0.240166 0.778548
vn  0.693205 -0.693204 0.197319
vn  0.905716 -0.375159 0.197319
vn  0.443770 -0.443770 0.778547
vn  0.375160 -0.905715 0.197319
vn  0.240167 -0.579813 0.778548
vn  0.000000 -0.980339 0.197319
vn  0.000000 -0.627585 0.778548
vn  -0.375159 -0.905716 0.197319
vn  -0.240166 -0.579814 0.778548
vn  -0.693204 -0.693205 0.197319
vn  -0.443770 -0.443770 0.778548
vn  -0.905715 -0.375160 0.197319
vn  -0.579813 -0.240165 0.778548
vn  -0.980339 0.000000 0.197319
vn  -0.627585 0.000000 0.778548
vn  -0.905716 0.375159 0.197319
vn  -0.579814 0.240164 0.778548
vn  -0.693205 0.693204 0.197319
vn  -0.443770 0.443769 0.778548
vn  -0.443770 0.443769 0.778548
vn  -0.375160 0.905715 0.197319
vn  -0.693205 0.693204 0.197319
vn  -0.240167 0.579813 0.778548
vn  0.000000 0.980339 0.197319
vn  0.000000 0.627585 0.778548
vn  0.375159 0.905716 0.197319
vn  0.240166 0.579813 0.778548
vn  0.693205 0.693205 0.197319
vn  0.443770 0.443771 0.778547
vn  0.905715 0.375160 0.197319
vn  0.579813 0.240167 0.778548
vn  0.980339 0.000000 0.197319
vn  0.627585 0.000000 0.778548
vn  0.579814 -0.240166 0.778548
vn  0.000000 0.000000 1.000000
vn  0.443770 -0.443770 0.778547
vn  0.240167 -0.579813 0.778548
vn  0.000000 -0.627585 0.778548
vn  -0.240166 -0.579814 0.778548
vn  -0.443770 -0.443770 0.778548
vn  -0.579813 -0.240165 0.778548
vn  -0.627585 0.000000 0.778548
vn  -0.579814 0.240164 0.778548
vn  -0.443770 0.443769 0.778548
vn  -0.240167 0.579813 0.778548
vn  0.000000 0.627585 0.778548
vn  0.240166 0.579813 0.778548
vn  0.443770 0.443771 0.778547
vn  0.579813 0.240167 0.778548
vn  0.627585 0.000000 0.778548
vn  0.866934 -0.359096 0.345653
vn  0.663523 -0.663522 0.345653
vn  0.938362 0.000000 0.345653
vn  0.866934 0.359096 0.345653
vn  0.663522 0.663523 0.345653
vn  0.359095 0.866934 0.345653
vn  0.922499 -0.382111 0.054659
vn  0.706050 -0.706049 0.054659
vn  0.998505 0.000000 0.054659
vn  0.922498 0.382112 0.054659
vn  0.706049 0.706050 0.054659
vn  0.382111 0.922499 0.054658
vn  -0.000001 0.998505 0.054659
vn  -0.382112 0.922498 0.054659
vn  -0.706050 0.706049 0.054659
vn  -0.922498 -0.382111 0.054659
vn  -0.706050 -0.706050 0.054659
vn  -0.382111 -0.922499 0.054659
vn  0.000000 -0.998505 0.054659
vn  0.382112 -0.922498 0.054659
vn  0.706050 -0.706049 0.054659
vn  -0.911860 0.377704 -0.160784
vn  -0.697908 0.697907 -0.160784
vn  -0.911860 0.377704 -0.160784
vn  -0.697908 0.697907 -0.160784
vn  -0.377705 0.911859 -0.160784
vn  -0.377705 0.911859 -0.160784
vn  -0.000001 0.986990 -0.160784
vn  -0.000001 0.986990 -0.160784
vn  0.377704 0.911860 -0.160784
vn  0.377704 0.911860 -0.160784
vn  0.697907 0.697908 -0.160784
vn  0.697907 0.697908 -0.160784
vn  0.911859 0.377705 -0.160784
vn  0.911859 0.377705 -0.160784
vn  0.986990 0.000000 -0.160784
vn  0.986990 0.000000 -0.160784
vn  0.911859 -0.377705 -0.160784
vn  0.911859 -0.377705 -0.160784
vn  0.697907 -0.697907 -0.160784
vn  0.697907 -0.697907 -0.160784
vn  0.697907 -0.697907 -0.160784
vn  0.377705 -0.911859 -0.160784
vn  0.697907 -0.697907 -0.160784
vn  0.377705 -0.911859 -0.160784
vn  0.000000 -0.986990 -0.160784
vn  0.000000 -0.986990 -0.160784
vn  -0.377705 -0.911859 -0.160784
vn  -0.377705 -0.911859 -0.160784
vn  -0.697907 -0.697907 -0.160784
vn  -0.697907 -0.697907 -0.160784
vn  -0.911859 -0.377705 -0.160784
vn  -0.911859 -0.377705 -0.160784
vn  -0.986990 0.000000 -0.160784
vn  -0.986990 0.000000 -0.160784
vn  -0.000002 0.000004 1.000000
vn  -0.000002 0.000004 1.000000
vn  -0.000002 0.000004 1.000000
vn  -0.000004 0.000000 1.000000
vn  0.000000 -0.000002 1.000000
vn  0.000000 0.000000 1.000000
vn  0.000000 -0.000002 1.000000
vn  0.000000 0.000000 1.000000
vn  0.000002 -0.000004 1.000000
vn  0.000002 0.000004 1.000000
vn  0.000000 0.000000 1.000000
vn  0.000000 0.000000 1.000000
vn  0.000000 0.000002 1.000000
vn  0.000000 -0.000001 1.000000
vn  0.000000 -0.000004 1.000000
vn  -0.000003 0.000004 1.000000
vn  0.000000 -0.000004 1.000000
vn  -0.000002 -0.000003 -1.000000
vn  -0.000002 -0.000003 -1.000000
vn  -0.000002 -0.000003 -1.000000
vn  0.000001 -0.000004 -1.000000
vn  0.000005 0.000001 -1.000000
vn  -0.000005 -0.000001 -1.000000
vn  0.000004 0.000000 -1.000000
vn  0.000000 0.000000 -1.000000
vn  -0.000002 0.000000 -1.000000
vn  -0.000002 0.000000 -1.000000
vn  0.000000 -0.000003 -1.000000
vn  0.000000 -0.000001 -1.000000
vn  0.000000 0.000002 -1.000000
vn  0.000005 0.000000 -1.000000
vn  0.000001 0.000006 -1.000000
vn  0.000002 0.000000 -1.000000
vn  0.000000 0.000000 -1.000000

g Mesh_0000.rip
usemtl Tex_0000_0.dds
f  1/1/1 2/2/2 3/3/3
f  2/2/2 1/1/1 4/4/4
f  4/4/4 5/5/5 2/2/2
f  5/5/5 4/4/4 6/6/6
f  6/6/6 7/7/7 5/5/5
f  7/7/7 6/6/6 8/8/8
f  8/8/8 9/9/9 7/7/7
f  9/9/9 8/8/8 10/10/10
f  10/10/10 11/11/11 9/9/9
f  11/11/11 10/10/10 12/12/12
f  12/12/12 13/13/13 11/11/11
f  13/13/13 12/12/12 14/14/14
f  14/14/14 15/15/15 13/13/13
f  15/15/15 14/14/14 16/16/16
f  16/16/16 17/17/17 15/15/15
f  17/17/17 16/16/16 18/18/18
f  18/18/18 19/19/19 17/17/17
f  19/19/19 18/18/18 20/20/20
f  21/21/21 8/8/8 6/6/6
f  6/6/6 22/22/22 21/21/21
f  8/8/8 21/21/21 23/23/23
f  23/23/23 10/10/10 8/8/8
f  10/10/10 23/23/23 24/24/24
f  24/24/24 12/12/12 10/10/10
f  12/12/12 24/24/24 25/25/25
f  25/25/25 14/14/14 12/12/12
f  14/14/14 25/25/25 26/26/26
f  26/26/26 16/16/16 14/14/14
f  16/16/16 26/26/26 27/27/27
f  27/27/27 18/18/18 16/16/16
f  18/18/18 27/27/27 28/28/28
f  28/28/28 20/20/20 18/18/18
f  20/20/20 28/28/28 29/29/29
f  30/30/30 21/21/21 22/22/22
f  22/22/22 31/31/31 30/30/30
f  31/31/31 22/22/22 32/32/32
f  4/4/4 32/32/32 22/22/22
f  32/32/32 4/4/4 1/1/1
f  22/22/22 6/6/6 4/4/4
f  1/1/1 33/33/33 32/32/32
f  33/33/33 1/1/1 34/34/34
f  3/3/3 34/34/34 1/1/1
f  34/34/34 3/3/3 35/35/35
f  35/35/35 36/36/36 34/34/34
f  36/36/36 35/35/35 37/37/37
f  37/37/37 38/38/38 36/36/36
f  38/38/38 37/37/37 39/39/39
f  39/39/39 40/40/40 38/38/38
f  40/40/40 39/39/39 41/41/41
f  41/41/41 42/42/42 40/40/40
f  42/42/42 41/41/41 43/43/43
f  43/43/43 44/44/44 42/42/42
f  44/44/44 43/43/43 45/45/45
f  45/45/45 46/46/46 44/44/44
f  46/46/46 45/45/45 47/47/47
f  48/48/48 44/44/44 46/46/46
f  44/44/44 48/48/48 49/49/49
f  49/49/49 42/42/42 44/44/44
f  42/42/42 49/49/49 50/50/50
f  50/50/50 40/40/40 42/42/42
f  40/40/40 50/50/50 51/51/51
f  51/51/51 38/38/38 40/40/40
f  38/38/38 51/51/51 52/52/52
f  52/52/52 36/36/36 38/38/38
f  36/36/36 52/52/52 53/53/53
f  53/53/53 34/34/34 36/36/36
f  34/34/34 53/53/53 33/33/33
f  54/54/54 49/49/49 48/48/48
f  49/49/49 54/54/54 55/55/55
f  55/55/55 50/50/50 49/49/49
f  50/50/50 55/55/55 56/56/56
f  56/56/56 51/51/51 50/50/50
f  51/51/51 56/56/56 57/57/57
f  57/57/57 52/52/52 51/51/51
f  52/52/52 57/57/57 58/58/58
f  58/58/58 53/53/53 52/52/52
f  53/53/53 58/58/58 59/59/59
f  59/59/59 33/33/33 53/53/53
f  33/33/33 59/59/59 60/60/60
f  60/60/60 32/32/32 33/33/33
f  32/32/32 60/60/60 31/31/31
f  61/61/61 55/55/55 54/54/54
f  55/55/55 61/61/61 62/62/62
f  62/62/62 56/56/56 55/55/55
f  56/56/56 62/62/62 63/63/63
f  63/63/63 57/57/57 56/56/56
f  57/57/57 63/63/63 64/64/64
f  64/64/64 58/58/58 57/57/57
f  58/58/58 64/64/64 65/65/65
f  65/65/65 59/59/59 58/58/58
f  59/59/59 65/65/65 66/66/66
f  66/66/66 60/60/60 59/59/59
f  60/60/60 66/66/66 67/67/67
f  67/67/67 31/31/31 60/60/60
f  31/31/31 67/67/67 68/68/68
f  68/68/68 30/30/30 31/31/31
f  30/30/30 68/68/68 69/69/69
f  69/69/69 70/70/70 30/30/30
f  21/21/21 30/30/30 70/70/70
f  70/70/70 23/23/23 21/21/21
f  23/23/23 70/70/70 71/71/71
f  71/71/71 24/24/24 23/23/23
f  24/24/24 71/71/71 72/72/72
f  72/72/72 25/25/25 24/24/24
f  25/25/25 72/72/72 73/73/73
f  73/73/73 26/26/26 25/25/25
f  26/26/26 73/73/73 74/74/74
f  74/74/74 27/27/27 26/26/26
f  27/27/27 74/74/74 75/75/75
f  75/75/75 28/28/28 27/27/27
f  28/28/28 75/75/75 76/76/76
f  76/76/76 29/29/29 28/28/28
f  29/29/29 76/76/76 77/77/77
f  78/78/78 71/71/71 70/70/70
f  70/70/70 69/69/69 78/78/78
f  71/71/71 78/78/78 79/79/79
f  79/79/79 72/72/72 71/71/71
f  72/72/72 79/79/79 80/80/80
f  80/80/80 73/73/73 72/72/72
f  73/73/73 80/80/80 81/81/81
f  81/81/81 74/74/74 73/73/73
f  74/74/74 81/81/81 82/82/82
f  82/82/82 75/75/75 74/74/74
f  75/75/75 82/82/82 83/83/83
f  83/83/83 76/76/76 75/75/75
f  76/76/76 83/83/83 84/84/84
f  84/84/84 77/77/77 76/76/76
f  77/77/77 84/84/84 85/85/85
f  86/86/86 78/78/78 69/69/69
f  69/69/69 87/87/87 86/86/86
f  78/78/78 86/86/86 88/88/88
f  88/88/88 79/79/79 78/78/78
f  79/79/79 88/88/88 89/89/89
f  89/89/89 80/80/80 79/79/79
f  80/80/80 89/89/89 90/90/90
f  90/90/90 81/81/81 80/80/80
f  81/81/81 90/90/90 91/91/91
f  91/91/91 82/82/82 81/81/81
f  82/82/82 91/91/91 92/92/92
f  92/92/92 83/83/83 82/82/82
f  83/83/83 92/92/92 93/93/93
f  93/93/93 84/84/84 83/83/83
f  84/84/84 93/93/93 94/94/94
f  94/94/94 85/85/85 84/84/84
f  85/85/85 94/94/94 95/95/95
f  96/96/96 89/89/89 88/88/88
f  88/88/88 97/97/97 96/96/96
f  89/89/89 96/96/96 98/98/98
f  98/98/98 90/90/90 89/89/89
f  90/90/90 98/98/98 99/99/99
f  99/99/99 91/91/91 90/90/90
f  91/91/91 99/99/99 100/100/100
f  100/100/100 92/92/92 91/91/91
f  92/92/92 100/100/100 101/101/101
f  101/101/101 93/93/93 92/92/92
f  93/93/93 101/101/101 102/102/102
f  102/102/102 94/94/94 93/93/93
f  94/94/94 102/102/102 103/103/103
f  103/103/103 95/95/95 94/94/94
f  95/95/95 103/103/103 104/104/104
f  105/105/105 96/96/96 97/97/97
f  97/97/97 106/106/106 105/105/105
f  106/106/106 97/97/97 107/107/107
f  86/86/86 107/107/107 97/97/97
f  107/107/107 86/86/86 87/87/87
f  97/97/97 88/88/88 86/86/86
f  87/87/87 108/108/108 107/107/107
f  108/108/108 87/87/87 109/109/109
f  68/68/68 109/109/109 87/87/87
f  87/87/87 69/69/69 68/68/68
f  109/109/109 68/68/68 67/67/67
f  67/67/67 110/110/110 109/109/109
f  110/110/110 67/67/67 66/66/66
f  66/66/66 111/111/111 110/110/110
f  111/111/111 66/66/66 65/65/65
f  65/65/65 112/112/112 111/111/111
f  112/112/112 65/65/65 64/64/64
f  64/64/64 113/113/113 112/112/112
f  113/113/113 64/64/64 63/63/63
f  63/63/63 114/114/114 113/113/113
f  114/114/114 63/63/63 62/62/62
f  62/62/62 115/115/115 114/114/114
f  115/115/115 62/62/62 61/61/61
f  116/116/116 114/114/114 115/115/115
f  114/114/114 116/116/116 117/117/117
f  117/117/117 113/113/113 114/114/114
f  113/113/113 117/117/117 118/118/118
f  118/118/118 112/112/112 113/113/113
f  112/112/112 118/118/118 119/119/119
f  119/119/119 111/111/111 112/112/112
f  111/111/111 119/119/119 120/120/120
f  120/120/120 110/110/110 111/111/111
f  110/110/110 120/120/120 121/121/121
f  121/121/121 109/109/109 110/110/110
f  109/109/109 121/121/121 108/108/108
f  122/122/122 117/117/117 116/116/116
f  117/117/117 122/122/122 123/123/123
f  123/123/123 118/118/118 117/117/117
f  118/118/118 123/123/123 124/124/124
f  124/124/124 119/119/119 118/118/118
f  119/119/119 124/124/124 125/125/125
f  125/125/125 120/120/120 119/119/119
f  120/120/120 125/125/125 126/126/126
f  126/126/126 121/121/121 120/120/120
f  121/121/121 126/126/126 127/127/127
f  127/127/127 108/108/108 121/121/121
f  108/108/108 127/127/127 128/128/128
f  128/128/128 107/107/107 108/108/108
f  107/107/107 128/128/128 106/106/106
f  129/129/129 123/123/123 122/122/122
f  123/123/123 129/129/129 130/130/130
f  130/130/130 124/124/124 123/123/123
f  124/124/124 130/130/130 131/131/131
f  131/131/131 125/125/125 124/124/124
f  125/125/125 131/131/131 132/132/132
f  132/132/132 126/126/126 125/125/125
f  126/126/126 132/132/132 133/133/133
f  133/133/133 127/127/127 126/126/126
f  127/127/127 133/133/133 134/134/134
f  134/134/134 128/128/128 127/127/127
f  128/128/128 134/134/134 135/135/135
f  135/135/135 106/106/106 128/128/128
f  106/106/106 135/135/135 136/136/136
f  136/136/136 105/105/105 106/106/106
f  105/105/105 136/136/136 137/137/137
f  137/137/137 138/138/138 105/105/105
f  96/96/96 105/105/105 138/138/138
f  138/138/138 98/98/98 96/96/96
f  98/98/98 138/138/138 139/139/139
f  139/139/139 99/99/99 98/98/98
f  99/99/99 139/139/139 140/140/140
f  140/140/140 100/100/100 99/99/99
f  100/100/100 140/140/140 141/141/141
f  141/141/141 101/101/101 100/100/100
f  101/101/101 141/141/141 142/142/142
f  142/142/142 102/102/102 101/101/101
f  102/102/102 142/142/142 143/143/143
f  143/143/143 103/103/103 102/102/102
f  103/103/103 143/143/143 144/144/144
f  144/144/144 104/104/104 103/103/103
f  104/104/104 144/144/144 145/145/145
f  146/146/146 139/139/139 138/138/138
f  138/138/138 137/137/137 146/146/146
f  139/139/139 146/146/146 147/147/147
f  147/147/147 140/140/140 139/139/139
f  140/140/140 147/147/147 148/148/148
f  148/148/148 141/141/141 140/140/140
f  141/141/141 148/148/148 149/149/149
f  149/149/149 142/142/142 141/141/141
f  142/142/142 149/149/149 150/150/150
f  150/150/150 143/143/143 142/142/142
f  143/143/143 150/150/150 151/151/151
f  151/151/151 144/144/144 143/143/143
f  144/144/144 151/151/151 152/152/152
f  152/152/152 145/145/145 144/144/144
f  145/145/145 152/152/152 153/153/153
f  154/154/154 147/147/147 146/146/146
f  147/147/147 154/154/154 155/155/155
f  146/146/146 156/156/156 154/154/154
f  156/156/156 146/146/146 137/137/137
f  137/137/137 157/157/157 156/156/156
f  157/157/157 137/137/137 136/136/136
f  136/136/136 158/158/158 157/157/157
f  158/158/158 136/136/136 135/135/135
f  135/135/135 159/159/159 158/158/158
f  159/159/159 135/135/135 134/134/134
f  134/134/134 160/160/160 159/159/159
f  160/160/160 134/134/134 133/133/133
f  133/133/133 161/161/161 160/160/160
f  161/161/161 133/133/133 132/132/132
f  132/132/132 162/162/162 161/161/161
f  162/162/162 132/132/132 131/131/131
f  131/131/131 163/163/163 162/162/162
f  163/163/163 131/131/131 130/130/130
f  130/130/130 164/164/164 163/163/163
f  164/164/164 130/130/130 129/129/129
f  165/165/165 157/157/157 158/158/158
f  157/157/157 165/165/165 166/166/166
f  167/167/167 166/166/166 165/165/165
f  166/166/166 167/167/167 168/168/168
f  169/169/169 168/168/168 167/167/167
f  167/167/167 170/170/170 169/169/169
f  170/170/170 167/167/167 171/171/171
f  165/165/165 171/171/171 167/167/167
f  171/171/171 172/172/172 170/170/170
f  172/172/172 171/171/171 173/173/173
f  173/173/173 174/174/174 172/172/172
f  174/174/174 173/173/173 175/175/175
f  175/175/175 176/176/176 174/174/174
f  176/176/176 175/175/175 177/177/177
f  177/177/177 178/178/178 176/176/176
f  178/178/178 177/177/177 179/179/179
f  179/179/179 180/180/180 178/178/178
f  180/180/180 179/179/179 181/181/181
f  168/168/168 169/169/169 182/182/182
f  182/182/182 183/183/183 168/168/168
f  183/183/183 182/182/182 184/184/184
f  184/184/184 185/185/185 183/183/183
f  185/185/185 184/184/184 186/186/186
f  186/186/186 187/187/187 185/185/185
f  187/187/187 186/186/186 188/188/188
f  188/188/188 189/189/189 187/187/187
f  189/189/189 188/188/188 190/190/190
f  190/190/190 191/191/191 189/189/189
f  191/191/191 190/190/190 192/192/192
f  192/192/192 193/193/193 191/191/191
f  193/193/193 192/192/192 194/194/194
f  194/194/194 195/195/195 193/193/193
f  195/195/195 194/194/194 196/196/196
f  196/196/196 197/197/197 195/195/195
f  197/197/197 196/196/196 198/198/198
f  198/198/198 199/199/199 197/197/197
f  199/199/199 198/198/198 200/200/200
f  201/201/201 188/188/188 186/186/186
f  186/186/186 202/202/202 201/201/201
f  188/188/188 201/201/201 203/203/203
f  203/203/203 190/190/190 188/188/188
f  190/190/190 203/203/203 204/204/204
f  204/204/204 192/192/192 190/190/190
f  192/192/192 204/204/204 205/205/205
f  205/205/205 194/194/194 192/192/192
f  194/194/194 205/205/205 206/206/206
f  206/206/206 196/196/196 194/194/194
f  196/196/196 206/206/206 207/207/207
f  207/207/207 198/198/198 196/196/196
f  198/198/198 207/207/207 208/208/208
f  208/208/208 200/200/200 198/198/198
f  200/200/200 208/208/208 209/209/209
f  210/210/210 201/201/201 202/202/202
f  202/202/202 211/211/211 210/210/210
f  211/211/211 202/202/202 212/212/212
f  184/184/184 212/212/212 202/202/202
f  212/212/212 184/184/184 182/182/182
f  202/202/202 186/186/186 184/184/184
f  182/182/182 213/213/213 212/212/212
f  213/213/213 182/182/182 169/169/169
f  169/169/169 214/214/214 213/213/213
f  214/214/214 169/169/169 170/170/170
f  170/170/170 215/215/215 214/214/214
f  215/215/215 170/170/170 172/172/172
f  172/172/172 216/216/216 215/215/215
f  216/216/216 172/172/172 174/174/174
f  174/174/174 217/217/217 216/216/216
f  217/217/217 174/174/174 176/176/176
f  176/176/176 218/218/218 217/217/217
f  218/218/218 176/176/176 178/178/178
f  178/178/178 219/219/219 218/218/218
f  219/219/219 178/178/178 180/180/180
f  220/220/220 218/218/218 219/219/219
f  218/218/218 220/220/220 221/221/221
f  221/221/221 217/217/217 218/218/218
f  217/217/217 221/221/221 222/222/222
f  222/222/222 216/216/216 217/217/217
f  216/216/216 222/222/222 223/223/223
f  223/223/223 215/215/215 216/216/216
f  215/215/215 223/223/223 224/224/224
f  224/224/224 214/214/214 215/215/215
f  214/214/214 224/224/224 225/225/225
f  225/225/225 213/213/213 214/214/214
f  213/213/213 225/225/225 226/226/226
f  226/226/226 212/212/212 213/213/213
f  212/212/212 226/226/226 211/211/211
f  227/227/227 221/221/221 220/220/220
f  221/221/221 227/227/227 228/228/228
f  228/228/228 222/222/222 221/221/221
f  222/222/222 228/228/228 229/229/229
f  229/229/229 223/223/223 222/222/222
f  223/223/223 229/229/229 230/230/230
f  230/230/230 224/224/224 223/223/223
f  224/224/224 230/230/230 231/231/231
f  231/231/231 225/225/225 224/224/224
f  225/225/225 231/231/231 232/232/232
f  232/232/232 226/226/226 225/225/225
f  226/226/226 232/232/232 233/233/233
f  233/233/233 211/211/211 226/226/226
f  211/211/211 233/233/233 234/234/234
f  234/234/234 210/210/210 211/211/211
f  210/210/210 234/234/234 235/235/235
f  235/235/235 236/236/236 210/210/210
f  201/201/201 210/210/210 236/236/236
f  236/236/236 203/203/203 201/201/201
f  203/203/203 236/236/236 237/237/237
f  237/237/237 204/204/204 203/203/203
f  204/204/204 237/237/237 238/238/238
f  238/238/238 205/205/205 204/204/204
f  205/205/205 238/238/238 239/239/239
f  239/239/239 206/206/206 205/205/205
f  206/206/206 239/239/239 240/240/240
f  240/240/240 207/207/207 206/206/206
f  207/207/207 240/240/240 241/241/241
f  241/241/241 208/208/208 207/207/207
f  208/208/208 241/241/241 242/242/242
f  242/242/242 209/209/209 208/208/208
f  209/209/209 242/242/242 243/243/243
f  244/244/244 237/237/237 236/236/236
f  236/236/236 235/235/235 244/244/244
f  237/237/237 244/244/244 245/245/245
f  245/245/245 238/238/238 237/237/237
f  238/238/238 245/245/245 246/246/246
f  246/246/246 239/239/239 238/238/238
f  239/239/239 246/246/246 247/247/247
f  247/247/247 240/240/240 239/239/239
f  240/240/240 247/247/247 248/248/248
f  248/248/248 241/241/241 240/240/240
f  241/241/241 248/248/248 249/249/249
f  249/249/249 242/242/242 241/241/241
f  242/242/242 249/249/249 250/250/250
f  250/250/250 243/243/243 242/242/242
f  243/243/243 250/250/250 251/251/251
f  252/252/252 244/244/244 235/235/235
f  235/235/235 253/253/253 252/252/252
f  244/244/244 252/252/252 254/254/254
f  254/254/254 245/245/245 244/244/244
f  245/245/245 254/254/254 255/255/255
f  255/255/255 246/246/246 245/245/245
f  246/246/246 255/255/255 256/256/256
f  256/256/256 247/247/247 246/246/246
f  247/247/247 256/256/256 257/257/257
f  257/257/257 248/248/248 247/247/247
f  248/248/248 257/257/257 258/258/258
f  258/258/258 249/249/249 248/248/248
f  249/249/249 258/258/258 259/259/259
f  259/259/259 250/250/250 249/249/249
f  250/250/250 259/259/259 260/260/260
f  260/260/260 251/251/251 250/250/250
f  251/251/251 260/260/260 261/261/261
f  262/262/262 255/255/255 254/254/254
f  254/254/254 263/263/263 262/262/262
f  255/255/255 262/262/262 264/264/264
f  264/264/264 256/256/256 255/255/255
f  256/256/256 264/264/264 265/265/265
f  265/265/265 257/257/257 256/256/256
f  257/257/257 265/265/265 266/266/266
f  266/266/266 258/258/258 257/257/257
f  258/258/258 266/266/266 267/267/267
f  267/267/267 259/259/259 258/258/258
f  259/259/259 267/267/267 268/268/268
f  268/268/268 260/260/260 259/259/259
f  260/260/260 268/268/268 269/269/269
f  269/269/269 261/261/261 260/260/260
f  261/261/261 269/269/269 270/270/270
f  252/252/252 271/271/271 263/263/263
f  271/271/271 252/252/252 253/253/253
f  263/263/263 254/254/254 252/252/252
f  253/253/253 272/272/272 271/271/271
f  272/272/272 253/253/253 273/273/273
f  234/234/234 273/273/273 253/253/253
f  253/253/253 235/235/235 234/234/234
f  273/273/273 234/234/234 233/233/233
f  233/233/233 274/274/274 273/273/273
f  274/274/274 233/233/233 232/232/232
f  232/232/232 275/275/275 274/274/274
f  275/275/275 232/232/232 231/231/231
f  231/231/231 276/276/276 275/275/275
f  276/276/276 231/231/231 230/230/230
f  230/230/230 277/277/277 276/276/276
f  277/277/277 230/230/230 229/229/229
f  229/229/229 278/278/278 277/277/277
f  278/278/278 229/229/229 228/228/228
f  228/228/228 279/279/279 278/278/278
f  279/279/279 228/228/228 227/227/227
f  280/280/280 278/278/278 279/279/279
f  278/278/278 280/280/280 281/281/281
f  281/281/281 277/277/277 278/278/278
f  277/277/277 281/281/281 282/282/282
f  282/282/282 276/276/276 277/277/277
f  276/276/276 282/282/282 283/283/283
f  283/283/283 275/275/275 276/276/276
f  275/275/275 283/283/283 284/284/284
f  284/284/284 274/274/274 275/275/275
f  274/274/274 284/284/284 285/285/285
f  285/285/285 273/273/273 274/274/274
f  273/273/273 285/285/285 272/272/272
f  286/286/286 287/287/287 288/288/288
f  287/287/287 286/286/286 289/289/289
f  288/288/288 290/290/290 286/286/286
f  290/290/290 288/288/288 291/291/291
f  291/291/291 292/292/292 290/290/290
f  292/292/292 291/291/291 293/293/293
f  293/293/293 294/294/294 292/292/292
f  294/294/294 293/293/293 295/295/295
f  295/295/295 296/296/296 294/294/294
f  296/296/296 295/295/295 297/297/297
f  297/297/297 298/298/298 296/296/296
f  298/298/298 297/297/297 299/299/299
f  299/299/299 300/300/300 298/298/298
f  300/300/300 299/299/299 301/301/301
f  301/301/301 302/302/302 300/300/300
f  302/302/302 301/301/301 303/303/303
f  303/303/303 304/304/304 302/302/302
f  304/304/304 303/303/303 305/305/305
f  306/306/306 307/307/307 308/308/308
f  307/307/307 306/306/306 309/309/309
f  308/308/308 310/310/310 306/306/306
f  310/310/310 308/308/308 311/311/311
f  311/311/311 312/312/312 310/310/310
f  312/312/312 311/311/311 313/313/313
f  313/313/313 314/314/314 312/312/312
f  314/314/314 313/313/313 315/315/315
f  315/315/315 316/316/316 314/314/314
f  316/316/316 315/315/315 317/317/317
f  317/317/317 318/318/318 316/316/316
f  318/318/318 317/317/317 319/319/319
f  319/319/319 289/289/289 318/318/318
f  289/289/289 319/319/319 287/287/287
f  320/320/320 321/321/321 322/322/322
f  323/323/323 321/321/321 320/320/320
f  324/324/324 321/321/321 323/323/323
f  325/325/325 321/321/321 324/324/324
f  326/326/326 321/321/321 325/325/325
f  327/327/327 321/321/321 326/326/326
f  328/328/328 321/321/321 327/327/327
f  329/329/329 321/321/321 328/328/328
f  330/330/330 321/321/321 329/329/329
f  331/331/331 321/321/321 330/330/330
f  332/332/332 321/321/321 331/331/331
f  333/333/333 321/321/321 332/332/332
f  334/334/334 321/321/321 333/333/333
f  335/335/335 321/321/321 334/334/334
f  336/336/336 321/321/321 335/335/335
f  322/322/322 321/321/321 336/336/336
f  337/337/337 338/338/338 339/339/339
f  338/338/338 337/337/337 340/340/340
f  340/340/340 341/341/341 338/338/338
f  341/341/341 340/340/340 342/342/342
f  342/342/342 343/343/343 341/341/341
f  343/343/343 342/342/342 344/344/344
f  344/344/344 345/345/345 343/343/343
f  345/345/345 344/344/344 346/346/346
f  346/346/346 347/347/347 345/345/345
f  347/347/347 346/346/346 348/348/348
f  348/348/348 349/349/349 347/347/347
f  349/349/349 348/348/348 350/350/350
f  350/350/350 351/351/351 349/349/349
f  351/351/351 350/350/350 352/352/352
f  352/352/352 353/353/353 351/351/351
f  353/353/353 352/352/352 354/354/354
f  354/354/354 355/355/355 353/353/353
f  355/355/355 354/354/354 356/356/356
f  357/357/357 358/358/358 359/359/359
f  358/358/358 357/357/357 360/360/360
f  360/360/360 361/361/361 358/358/358
f  361/361/361 360/360/360 362/362/362
f  362/362/362 363/363/363 361/361/361
f  363/363/363 362/362/362 364/364/364
f  364/364/364 365/365/365 363/363/363
f  365/365/365 364/364/364 366/366/366
f  366/366/366 367/367/367 365/365/365
f  367/367/367 366/366/366 368/368/368
f  368/368/368 369/369/369 367/367/367
f  369/369/369 368/368/368 370/370/370
f  370/370/370 339/339/339 369/369/369
f  339/339/339 370/370/370 337/337/337
f  371/371/371 372/372/372 373/373/373
f  373/373/373 372/372/372 374/374/374
f  374/374/374 372/372/372 375/375/375
f  375/375/375 372/372/372 376/376/376
f  376/376/376 372/372/372 377/377/377
f  377/377/377 372/372/372 378/378/378
f  378/378/378 372/372/372 379/379/379
f  379/379/379 372/372/372 380/380/380
f  380/380/380 372/372/372 381/381/381
f  381/381/381 372/372/372 382/382/382
f  382/382/382 372/372/372 383/383/383
f  383/383/383 372/372/372 384/384/384
f  384/384/384 372/372/372 385/385/385
f  385/385/385 372/372/372 386/386/386
f  386/386/386 372/372/372 387/387/387
f  387/387/387 372/372/372 371/371/371
f  388/388/388 153/153/153 152/152/152
f  153/153/153 388/388/388 389/389/389
f  152/152/152 390/390/390 388/388/388
f  390/390/390 152/152/152 151/151/151
f  151/151/151 391/391/391 390/390/390
f  391/391/391 151/151/151 150/150/150
f  150/150/150 392/392/392 391/391/391
f  392/392/392 150/150/150 149/149/149
f  149/149/149 393/393/393 392/392/392
f  393/393/393 149/149/149 148/148/148
f  147/147/147 393/393/393 148/148/148
f  393/393/393 147/147/147 155/155/155
f  394/394/394 389/389/389 388/388/388
f  389/389/389 394/394/394 395/395/395
f  197/197/197 395/395/395 394/394/394
f  395/395/395 197/197/197 199/199/199
f  394/394/394 195/195/195 197/197/197
f  195/195/195 394/394/394 396/396/396
f  396/396/396 193/193/193 195/195/195
f  193/193/193 396/396/396 397/397/397
f  397/397/397 191/191/191 193/193/193
f  191/191/191 397/397/397 398/398/398
f  398/398/398 189/189/189 191/191/191
f  189/189/189 398/398/398 399/399/399
f  399/399/399 187/187/187 189/189/189
f  187/187/187 399/399/399 400/400/400
f  400/400/400 185/185/185 187/187/187
f  185/185/185 400/400/400 401/401/401
f  401/401/401 183/183/183 185/185/185
f  183/183/183 401/401/401 402/402/402
f  402/402/402 168/168/168 183/183/183
f  168/168/168 402/402/402 166/166/166
f  155/155/155 401/401/401 400/400/400
f  401/401/401 155/155/155 154/154/154
f  154/154/154 402/402/402 401/401/401
f  402/402/402 154/154/154 156/156/156
f  156/156/156 166/166/166 402/402/402
f  166/166/166 156/156/156 157/157/157
f  392/392/392 399/399/399 398/398/398
f  398/398/398 391/391/391 392/392/392
f  399/399/399 392/392/392 393/393/393
f  393/393/393 400/400/400 399/399/399
f  400/400/400 393/393/393 155/155/155
f  397/397/397 390/390/390 391/391/391
f  390/390/390 397/397/397 396/396/396
f  396/396/396 388/388/388 390/390/390
f  388/388/388 396/396/396 394/394/394
f  391/391/391 398/398/398 397/397/397
f  171/171/171 165/165/165 403/403/403
f  403/403/403 173/173/173 171/171/171
f  173/173/173 403/403/403 404/404/404
f  404/404/404 175/175/175 173/173/173
f  175/175/175 404/404/404 405/405/405
f  405/405/405 177/177/177 175/175/175
f  177/177/177 405/405/405 406/406/406
f  406/406/406 179/179/179 177/177/177
f  179/179/179 406/406/406 407/407/407
f  407/407/407 181/181/181 179/179/179
f  181/181/181 407/407/407 408/408/408
f  158/158/158 403/403/403 165/165/165
f  403/403/403 158/158/158 159/159/159
f  159/159/159 404/404/404 403/403/403
f  404/404/404 159/159/159 160/160/160
f  160/160/160 405/405/405 404/404/404
f  405/405/405 160/160/160 161/161/161
f  161/161/161 406/406/406 405/405/405
f  406/406/406 161/161/161 162/162/162
f  162/162/162 407/407/407 406/406/406
f  407/407/407 162/162/162 163/163/163
f  163/163/163 408/408/408 407/407/407
f  408/408/408 163/163/163 164/164/164
f  409/409/409 410/410/410 411/411/411
f  410/410/410 409/409/409 412/412/412
f  412/412/412 413/413/413 410/410/410
f  413/413/413 412/412/412 414/414/414
f  414/414/414 415/415/415 413/413/413
f  415/415/415 414/414/414 416/416/416
f  416/416/416 417/417/417 415/415/415
f  417/417/417 416/416/416 418/418/418
f  418/418/418 419/419/419 417/417/417
f  419/419/419 418/418/418 420/420/420
f  420/420/420 421/421/421 419/419/419
f  421/421/421 420/420/420 422/422/422
f  422/422/422 423/423/423 421/421/421
f  423/423/423 422/422/422 424/424/424
f  424/424/424 425/425/425 423/423/423
f  425/425/425 424/424/424 426/426/426
f  426/426/426 427/427/427 425/425/425
f  427/427/427 426/426/426 428/428/428
f  429/429/429 430/430/430 431/431/431
f  430/430/430 429/429/429 432/432/432
f  432/432/432 433/433/433 430/430/430
f  433/433/433 432/432/432 434/434/434
f  434/434/434 435/435/435 433/433/433
f  435/435/435 434/434/434 436/436/436
f  436/436/436 437/437/437 435/435/435
f  437/437/437 436/436/436 438/438/438
f  438/438/438 439/439/439 437/437/437
f  439/439/439 438/438/438 440/440/440
f  440/440/440 441/441/441 439/439/439
f  441/441/441 440/440/440 442/442/442
f  442/442/442 411/411/411 441/441/441
f  411/411/411 442/442/442 409/409/409
f  443/443/443 444/444/444 445/445/445
f  445/445/445 444/444/444 446/446/446
f  446/446/446 444/444/444 447/447/447
f  447/447/447 444/444/444 448/448/448
f  448/448/448 444/444/444 449/449/449
f  449/449/449 444/444/444 450/450/450
f  450/450/450 444/444/444 451/451/451
f  451/451/451 444/444/444 452/452/452
f  452/452/452 444/444/444 453/453/453
f  453/453/453 444/444/444 454/454/454
f  454/454/454 444/444/444 455/455/455
f  455/455/455 444/444/444 456/456/456
f  456/456/456 444/444/444 457/457/457
f  457/457/457 444/444/444 458/458/458
f  458/458/458 444/444/444 459/459/459
f  459/459/459 444/444/444 443/443/443
f  460/460/460 461/461/461 462/462/462
f  463/463/463 461/461/461 460/460/460
f  464/464/464 461/461/461 463/463/463
f  465/465/465 461/461/461 464/464/464
f  466/466/466 461/461/461 465/465/465
f  467/467/467 461/461/461 466/466/466
f  468/468/468 461/461/461 467/467/467
f  469/469/469 461/461/461 468/468/468
f  470/470/470 461/461/461 469/469/469
f  471/471/471 461/461/461 470/470/470
f  472/472/472 461/461/461 471/471/471
f  473/473/473 461/461/461 472/472/472
f  474/474/474 461/461/461 473/473/473
f  475/475/475 461/461/461 474/474/474
f  476/476/476 461/461/461 475/475/475
f  462/462/462 461/461/461 476/476/476

g
